<svg height="100%" stroke-miterlimit="10" style="fill-rule:nonzero;clip-rule:evenodd;stroke-linecap:round;stroke-linejoin:round;" version="1.1" viewBox="0 0 110 111.939" width="100%" xml:space="preserve" xmlns="http://www.w3.org/2000/svg" xmlns:vectornator="http://vectornator.io" xmlns:xlink="http://www.w3.org/1999/xlink">
<defs>
<filter color-interpolation-filters="sRGB" filterUnits="userSpaceOnUse" height="2.67913" id="Filter" width="2.83525" x="82.0818" y="61.4341">
<feGaussianBlur in="SourceGraphic" result="Blur" stdDeviation="0.193798"/>
</filter>
</defs>
<g id="Raven_5" vectornator:layerName="Raven_5">
<path d="M56.6899 76.1436C57.2674 74.7457 56.2001 94.4339 58.2103 93.4213C59.066 91.0003 64.6056 84.5421 64.2288 85.316C62.9583 87.9256 60.611 92.2765 60.4986 96.6589C61.5789 100 63.4545 102.686 63.62 101.333C63.8113 99.7689 66.939 87.5476 67.7086 86.7945C67.4883 87.5727 67.5522 89.9456 67.6021 91.6538C67.6528 93.386 68.5961 95.1578 69.7173 94.9333C70.4291 82.5793 72.5502 83.5095 72.6313 80.8751C74.1931 79.1974 75.6613 75.9791 72.4929 68.3634C70.5333 63.6533 77.6998 59.8784 76.8849 59.7701C68.2088 58.6171 56.5568 60.6252 56.5568 60.6252C56.5568 60.6252 55.0831 80.0331 56.6899 76.1436Z" fill="#252525" fill-rule="nonzero" opacity="1" stroke="none" vectornator:layerName="Wind5R">
  <animate dur="0.85s" transition="all 0.3s ease"  repeatCount="indefinite" attributeName="d" values="

  M57.0585 59.0124C58.0625 58.831 33.0709 70.6248 51.0192 76.3356C52.1642 76.6998 56.9898 71.1271 56.0477 72.0358C55.1985 72.855 53.8918 76.4994 53.626 77.2925C52.9286 79.3728 55.0831 83.0331 56.6899 79.1436C57.2674 77.7457 58.1552 76.135 60.1654 75.1223C59.955 76.0434 59.1258 77.9322 58.749 78.7061C56.6746 82.9668 60.3715 86.496 60.7985 83.0055C60.9899 81.4415 64.4162 74.3081 65.1858 73.555C64.7422 75.1223 64.6401 76.0108 64.8988 76.9538C65.3194 78.487 66.6325 80.152 66.7136 77.5176C64.656 67.801 77.0842 64.2751 76.8849 62.7701C75.8481 54.94 64.2613 56.1386 64.2613 56.1386C64.2613 56.1386 57.5652 53.8923 57.0585 59.0124Z;

  M47.2377 54.8739C49.3196 59.2581 73.8002 61.2709 76.8849 62.7701C74.8363 58.3264 76.9225 54.4855 79.4124 52.9846C83.861 50.0981 76.6007 44.7609 68.557 45.2332C60.5133 45.7055 45.1557 50.4896 47.2377 54.8739Z;

  M64.6225 22.867C60.2483 14.1596 60.8408 17.1145 59.9464 20.9029C59.6012 22.3652 60.2989 25.1683 61.0123 28.0458C61.0123 28.0458 62.2546 31.9753 64.4543 36.0402C64.4543 36.0402 62.1291 34.3674 60.2949 31.9253C60.2949 31.9253 58.794 30.386 57.7418 28.3574C55 23.0713 53.9664 27.6791 53.9399 28.3889C53.8238 31.5018 54.631 34.6413 62.7398 40.8431C58.1158 40.9131 48.4727 25.9993 50.8629 35.8984C52.4214 42.3535 71.7506 61.2314 76.8849 61.7701C74.8363 57.3264 75.1061 52.7864 76.6288 47C78.173 41.132 77.7462 41.0466 74.8363 36.6834C71.1804 30.2909 71.7117 26.1305 70.9688 26.6994C67.5035 29.3529 72.4542 38.3153 72.1417 38.3848C70.2349 36.8642 66.1959 25.9991 64.6225 22.867Z;

  M57.2819 6.19837C57.02 3.96822 55.1271 5.36191 54.0063 7.64852C53.345 8.99761 53.0436 10.975 53.7571 13.8525C53.7571 13.8525 57.3894 22.2205 59.589 26.2854C59.589 26.2854 55 21.7685 53.1658 19.3264C53.1658 19.3264 51.2582 15.9312 49.8572 15.7127C48.7742 15.5437 48.3434 18.6059 48.566 20.0689C49.0146 23.017 54.462 27.3749 54.9106 31.092C54.9106 31.092 69.6453 61.3005 74.8363 58.9934C74.8363 58.9934 71.6704 50.7869 73.6657 38.4931C74.5854 34.799 73.4703 33.8198 72.0045 30.6842C68.3485 24.2918 66.2414 15.3239 65.1646 11.9939C65.1646 11.9939 61.8321 10.9045 64.4596 23.8501C64.4596 23.8501 57.6906 9.67958 57.2819 6.19837Z;
"/>
</path>
<g opacity="1" vectornator:layerName="Группа 1">
<path d="M83.9781 64.8191C83.9781 64.8191 85.0484 66.8051 85.5887 66.728C85.5887 66.728 89.9516 64.7492 95.2199 65.6369C95.2199 65.6369 87.7025 63.4104 83.9781 64.8191Z" fill="#4d4d4d" fill-rule="nonzero" opacity="1" stroke="none" vectornator:layerName="Кривая 1"/>
<path d="M86.5172 61.6333C86.5172 61.6333 92.634 62.3756 95.2199 65.6369C95.2199 65.6369 86.8254 63.6492 84.4325 64.9807C84.4325 64.9807 85.0129 64.3499 85.7636 63.3303C85.476 62.9218 86.1066 61.4708 86.5172 61.6333Z" fill="#8c8c8c" fill-rule="nonzero" opacity="1" stroke="none" vectornator:layerName="Кривая 1"/>
<path d="M87.0963 61.7538C86.7868 61.0247 86.5686 57.2233 72.814 58.6459C72.814 58.6459 55 56.8094 41.4444 64.1746C35.3246 65.0277 29.7585 65.5887 26.3609 65.4474C21.0166 64.6831 23.3644 65.7026 23.4516 66.2315C20.7569 66.3832 18.458 66.3997 16.7497 66.234C16.7497 66.234 17.5845 68.9242 20.6458 68.2748C20.6458 68.2748 20.6055 69.9695 27.696 69.2025C27.696 69.2025 31.1196 69.2647 43.5589 70.1301C43.5589 70.1301 45.9708 70.5012 48.2899 71.9854C48.2899 71.9854 48.661 74.6756 54.5052 73.0059C54.5052 73.0059 64.4311 76.5309 68.9766 74.4901C68.9766 74.4901 73.4293 73.2842 75.8412 69.8518C75.8412 69.8518 76.8355 70.218 77.7124 69.3411C77.7124 69.3411 78.4223 69.7587 79.0069 68.7147C79.0069 68.7147 79.6751 67.9631 80.3014 67.796C80.3014 67.796 83.8509 68.5894 86.0223 66.585C86.0223 66.585 84.6443 65.8334 84.519 65.0817C84.519 65.0817 84.9981 64.6245 85.7498 63.33C85.7498 63.33 86.0149 61.7773 87.0963 61.7538Z" fill="#303030" fill-rule="nonzero" opacity="1" stroke="none" vectornator:layerName="Кривая 1"/>
<path d="M82.5663 62.7737C82.5663 62.3015 82.984 61.9186 83.4994 61.9186C84.0147 61.9186 84.4325 62.3015 84.4325 62.7737C84.4325 63.2459 84.0147 63.6288 83.4994 63.6288C82.984 63.6288 82.5663 63.2459 82.5663 62.7737Z" fill="#8b8b8b" fill-rule="nonzero" filter="url(#Filter)" opacity="0.495118" stroke="#ffffff" stroke-linecap="butt" stroke-linejoin="round" stroke-opacity="0" stroke-width="0.571375" vectornator:blur="0.387597" vectornator:layerName="Овал 1"/>
<path d="M82.7013 62.6247C82.7013 62.0702 83.1609 61.9186 83.7279 61.9186C84.4325 61.9186 84.7838 62.3383 84.7545 62.6247C84.7545 63.1792 84.2949 63.6288 83.7279 63.6288C83.1609 63.6288 82.7013 63.1792 82.7013 62.6247Z" fill="none" opacity="0.495118" stroke="#8c8989" stroke-linecap="butt" stroke-linejoin="round" stroke-width="0.104252" vectornator:layerName="Овал 1"/>
<path d="M83.4994 62.5668C83.4994 62.4406 83.6017 62.3383 83.7279 62.3383C83.8541 62.3383 83.9564 62.4406 83.9564 62.5668C83.9564 62.693 83.8541 62.7954 83.7279 62.7954C83.6017 62.7954 83.4994 62.693 83.4994 62.5668Z" fill="#f3f3f3" fill-rule="nonzero" opacity="1" stroke="#ffffff" stroke-linecap="butt" stroke-linejoin="round" stroke-opacity="0" stroke-width="0.571375" vectornator:layerName="Овал 1"/>
</g>
<path d="M74.1653 59.5633C74.1653 57.0392 48.4674 62.5375 48.4674 62.5375C48.4674 62.5375 41.7523 66.1341 39.9088 67.0364C38.5632 67.6951 35.8345 68.7341 35.2881 69.1345C34.6354 70.3895 34.0077 70.786 34.6578 71.4578C35.6898 71.5586 38.1924 70.3551 37.7747 70.7126C36.1275 72.1223 34.3711 72.1223 33.8834 74.0715C33.6828 74.8733 34.5825 74.6897 36.5634 74.5039C37.2796 74.7574 34.8421 75.3521 33.567 76.5299C33.2808 77.3936 32.7094 78.2585 33.1116 79.12C32.8852 81.0244 36.7499 78.2857 37.8201 78.2489C37.36 79.4082 35.478 80.064 34.4527 81.029C34.032 81.4249 33.2523 82.5091 33.6983 83.5151C34.2409 84.7388 39.8575 81.4249 38.0163 82.6339C34.5239 85.1717 33.6781 85.9101 34.2222 87.7866C34.5528 88.927 40.9446 85.8245 42.7397 85.0463C40.2169 88.5865 36.5174 90.7958 34.3663 93.233C34.0407 94.144 32.8513 95.8951 33.6129 98.6833C34.0462 100.269 46.4995 87.0433 47.5544 87.7282C44.2001 92.316 38.1497 97.2329 37.2913 100C36.4042 102.859 36.6811 103.782 37.7926 106.001C39.1625 106.389 41.2761 100 46.3475 95.2527C48.8889 92.8737 49.8466 91.3122 50.4389 90.6728C50.123 91.6877 48.3334 93.6025 47.6599 96.315C48.1408 100 48.8589 100 49.5552 100C49.5552 100 53.4855 89.7418 61.9045 81.4249C65.9873 77.3916 64.1762 74.5397 65.0738 72.1223C67.5494 65.4556 69.2537 61.746 74.1653 59.5633Z" fill="#2c2c2c" fill-rule="nonzero" opacity="0.998077" stroke="none" vectornator:layerName="wind5L">
  <animate dur="0.85s" repeatCount="indefinite" transition="all 0.3s ease"  attributeName="d" values="
    M74.1653 59.5633C74.1653 57.0392 48.4674 62.5375 48.4674 62.5375C48.4674 62.5375 41.7523 66.1341 39.9088 67.0364C38.5632 67.6951 35.8345 68.7341 35.2881 69.1345C34.6354 70.3895 34.0077 70.786 34.6578 71.4578C35.6898 71.5586 38.1924 70.3551 37.7747 70.7126C36.1275 72.1223 34.3711 72.1223 33.8834 74.0715C33.6828 74.8733 34.5825 74.6897 36.5634 74.5039C37.2796 74.7574 34.8421 75.3521 33.567 76.5299C33.2808 77.3936 32.7094 78.2585 33.1116 79.12C32.8852 81.0244 36.7499 78.2857 37.8201 78.2489C37.36 79.4082 35.478 80.064 34.4527 81.029C34.032 81.4249 33.2523 82.5091 33.6983 83.5151C34.2409 84.7388 39.8575 81.4249 38.0163 82.6339C34.5239 85.1717 33.6781 85.9101 34.2222 87.7866C34.5528 88.927 40.9446 85.8245 42.7397 85.0463C40.2169 88.5865 36.5174 90.7958 34.3663 93.233C34.0407 94.144 32.8513 95.8951 33.6129 98.6833C34.0462 100.269 46.4995 87.0433 47.5544 87.7282C44.2001 92.316 38.1497 97.2329 37.2913 100C36.4042 102.859 36.6811 103.782 37.7926 106.001C39.1625 106.389 41.2761 100 46.3475 95.2527C48.8889 92.8737 49.8466 91.3122 50.4389 90.6728C50.123 91.6877 48.3334 93.6025 47.6599 96.315C48.1408 100 48.8589 100 49.5552 100C49.5552 100 53.4855 89.7418 61.9045 81.4249C65.9873 77.3916 64.1762 74.5397 65.0738 72.1223C67.5494 65.4556 69.2537 61.746 74.1653 59.5633Z;

    M74.1653 62.5633C74.1653 60.0392 63.9978 58.3264 63.9978 58.3264C63.9978 58.3264 48.5547 53.987 41.7456 57.5309C31.7386 64.3484 38.5489 63.6252 36.3162 65.6333C30.8244 70.5727 33.5722 70.4988 35.3836 69.4386C36.8934 68.5549 33.282 71.7472 33.2761 73.0699C33.2578 77.2043 35.0429 77.1046 38.6555 72.9538C39.7157 73.329 36.0867 76.5233 37.055 76.3574C36.5058 80.9762 37.0482 81.7085 40.1525 78.5442C44.1318 74.4881 47.0456 70.4465 45.7279 73.0374C44.4995 75.4526 41.9596 77.5688 41.5217 79.5195C39.7014 87.6292 42.0712 88.3052 50.6682 72.1565C49.6024 76.2614 49.6024 82.181 52.1652 76.192C52.1652 76.192 56.2573 64.9101 59.4043 63.6252C59.4043 63.6252 66.9649 57.5182 74.1653 62.5633Z;

    M74.1311 60.6171C70.4968 56.3178 62.9105 51.3412 62.2069 47C62.4562 42.8602 58.0916 42.0697 50.2662 37.246C42.6673 32.5619 37.7705 24.1315 36.1073 25.9069C36.1073 25.9069 35.5493 29.3816 41.0806 33.656C37.5686 33.1172 28.994 25.4563 26.2425 22.4816C23.3327 19.3357 22.9793 25.9488 25.9689 27.7955C29.3449 29.8809 37.6553 36.9154 37.0646 35.8951C37.0646 35.8951 20.1568 26.4077 22.1435 29.4838C22.1435 29.4838 20.2028 34.4803 34.6139 38.544C33.6941 40.797 27.4506 36.1864 25.2076 38.0449C25.2076 38.0449 29.0886 42.4717 30.5011 41.9877L25.6143 41.5297C25.6143 41.5297 24.4433 44.5261 33.5268 45.8389C33.5268 45.8389 27.7487 45.6542 26.3388 47C26.3388 47 26.1092 48.9181 31.4222 48.8956C32.6184 48.8906 27.8521 49.9241 28.3648 50.6931C28.3648 50.6931 28.4314 52.7042 35.2691 52.2864C36.5499 52.2081 31.6863 52.9452 33.1603 54.0988C33.1603 54.0988 37.3367 55.5765 40.3423 54.7483L35.5418 56.2445C35.5418 56.2445 37.0436 58.8422 42.2392 58.4927C42.2392 58.4927 38.9794 58.7722 39.8766 59.6694C39.8766 59.6694 41.8727 60.3607 43.7312 60.6171C43.7312 60.6171 40.1527 61.8056 46.2561 62.6252C49.6266 63.5963 48.5091 63.564 51.923 63.564C55.881 64.3134 59.7441 63.2017 66.7633 62.6581C70.8933 62.6581 75.5828 62.3345 74.1311 60.6171Z; 

    M74.5854 59.9656C70.9511 55.6663 63.8142 50.7698 61.5473 40.5206C60.894 32.8981 57.0569 31.3506 57.162 30.0897C57.162 30.0897 41.5164 14.8138 39.2093 7.7001C39.2093 7.7001 36.4535 10.0072 42.67 18.2745C42.67 18.2745 30.3652 6.80288 28.763 1.03503C28.763 1.03503 25.5587 1.35546 27.3531 8.08462C27.3531 8.08462 34.9154 18.7231 39.2734 22.4402C43.6313 26.1572 26.0073 13.2757 25.3023 12.058C25.3023 12.058 24.4692 16.4801 26.4559 19.5562C26.4559 19.5562 34.4027 25.7086 36.5817 27.6953C38.7607 29.682 29.0835 23.9142 26.8404 25.7727C26.8404 25.7727 27.7376 28.9771 30.8779 31.3483C30.8779 31.3483 28.3785 29.9384 27.289 31.4765C27.289 31.4765 26.1996 35.2576 34.0823 38.2697C34.0823 38.2697 29.1476 37.1802 27.7376 38.5261C27.7376 38.5261 26.1996 40.9614 30.8779 42.8199C30.8779 42.8199 29.0194 44.4862 29.5321 45.2552C29.5321 45.2552 31.8392 48.011 33.7618 48.011C33.7618 48.011 31.5188 49.5491 32.9928 50.7027C32.9928 50.7027 36.6458 51.9203 39.3374 52.8175L35.8767 54.3556C35.8767 54.3556 35.4922 55.3169 39.9783 56.855C39.9783 56.855 38.1839 58.265 39.0811 59.1622C39.0811 59.1622 40.491 60.1235 42.3495 60.3798C42.3495 60.3798 36.887 61.8674 42.9904 62.687C46.3609 63.6581 48.5091 64.564 51.923 64.564C55.881 65.3134 59.7441 64.2017 66.7633 63.6581C70.8933 63.6581 76.0372 61.683 74.5854 59.9656Z;
  "/>
</path>
</g>
</svg>
