<svg height="100%" stroke-miterlimit="10" style="fill-rule:nonzero;clip-rule:evenodd;stroke-linecap:round;stroke-linejoin:round;" version="1.1" viewBox="0 0 180 180" width="100%" xml:space="preserve" xmlns="http://www.w3.org/2000/svg" xmlns:vectornator="http://vectornator.io" xmlns:xlink="http://www.w3.org/1999/xlink">
<defs>
<filter color-interpolation-filters="sRGB" filterUnits="userSpaceOnUse" height="30.5256" id="Filter" width="28.3002" x="0.178118" y="50.111">
<feGaussianBlur in="SourceGraphic" result="Blur" stdDeviation="0.000454872"/>
</filter>
<filter color-interpolation-filters="sRGB" filterUnits="userSpaceOnUse" height="156.293" id="Filter_2" width="165.048" x="10.3636" y="18.2579">
<feGaussianBlur in="SourceGraphic" result="Blur" stdDeviation="0.000454872"/>
</filter>
<filter color-interpolation-filters="sRGB" filterUnits="userSpaceOnUse" height="5.30479" id="Filter_3" width="17.3592" x="8.26962" y="45.5546">
<feGaussianBlur in="SourceGraphic" result="Blur" stdDeviation="0.000454872"/>
</filter>
<filter color-interpolation-filters="sRGB" filterUnits="userSpaceOnUse" height="3.6203" id="Filter_4" width="22.5066" x="0.941809" y="51.9731">
<feGaussianBlur in="SourceGraphic" result="Blur" stdDeviation="0.000454872"/>
</filter>
<filter color-interpolation-filters="sRGB" filterUnits="userSpaceOnUse" height="1.635" id="Filter_5" width="6.60994" x="32.1036" y="50.9871">
<feGaussianBlur in="SourceGraphic" result="Blur" stdDeviation="0.000454872"/>
</filter>
<filter color-interpolation-filters="sRGB" filterUnits="userSpaceOnUse" height="5.99082" id="Filter_6" width="5.97619" x="26.758" y="44.2384">
<feGaussianBlur in="SourceGraphic" result="Blur" stdDeviation="0.000454872"/>
</filter>
<filter color-interpolation-filters="sRGB" filterUnits="userSpaceOnUse" height="5.99082" id="Filter_7" width="5.97619" x="40.2584" y="45.4873">
<feGaussianBlur in="SourceGraphic" result="Blur" stdDeviation="0.000454872"/>
</filter>
<filter color-interpolation-filters="sRGB" filterUnits="userSpaceOnUse" height="25.1932" id="Filter_8" width="89.149" x="60.2762" y="33.1514">
<feGaussianBlur in="SourceGraphic" result="Blur" stdDeviation="0.000441474"/>
</filter>
<filter color-interpolation-filters="sRGB" filterUnits="userSpaceOnUse" height="17.3531" id="Filter_9" width="70.9891" x="68.8349" y="34.353">
<feGaussianBlur in="SourceGraphic" result="Blur" stdDeviation="0.000345808"/>
</filter>
<filter color-interpolation-filters="sRGB" filterUnits="userSpaceOnUse" height="38.9309" id="Filter_10" width="36.8678" x="113.101" y="70.9001">
<feGaussianBlur in="SourceGraphic" result="Blur" stdDeviation="0.000345808"/>
</filter>
<filter color-interpolation-filters="sRGB" filterUnits="userSpaceOnUse" height="31.6275" id="Filter_11" width="27.7298" x="114.265" y="77.0398">
<feGaussianBlur in="SourceGraphic" result="Blur" stdDeviation="0.000273035"/>
</filter>
<filter color-interpolation-filters="sRGB" filterUnits="userSpaceOnUse" height="16.1884" id="Filter_12" width="14.7173" x="115.009" y="88.292">
<feGaussianBlur in="SourceGraphic" result="Blur" stdDeviation="0.000155408"/>
</filter>
</defs>
<clipPath id="ArtboardFrame">
<rect height="180" width="180" x="0" y="0"/>
</clipPath>
<g clip-path="url(#ArtboardFrame)" id="Слой-6" vectornator:layerName="Слой 6">
<path d="M0.659652 90C0.659652 40.2944 40.954 0 90.6597 0C140.365 0 180.66 40.2944 180.66 90C180.66 139.706 140.365 180 90.6597 180C40.954 180 0.659652 139.706 0.659652 90Z" fill="#e97a61" fill-rule="nonzero" opacity="1" stroke="#f8f7f7" stroke-linecap="butt" stroke-linejoin="round" stroke-width="1" vectornator:layerName="Овал 1"/>
</g>
<g id="Слой-5" vectornator:layerName="Слой 5" visibility="hidden">
<path d="M75.9391 21.5398L69.1967 22.7146C62.0432 23.886 57.6984 24.8885 56.2011 25.6695L54.9784 27.4139C51.9839 28.5854 49.2292 30.34 46.7338 32.6829L42.9958 38.2367L40.4805 40.5863C39.4823 42.1482 38.7437 43.4194 38.2447 44.3956L35.7643 45.8553L25.5285 63.1574L20.7774 74.8701L16.7949 78.0742L12.8473 78.715L12.8473 84.874L12.0438 95.9459L12.0438 101.5L11.3102 110.008L12.8473 120.226L12.8473 128.913C12.8473 128.913 14.5231 130.436 14.8735 132.9L15.0482 136.318C15.5164 139.336 18.7861 141.693 18.7862 141.693L24.0613 151.697L29.8604 157.643L33.808 160.811L40.5154 164.371L43.974 169.142L45.2316 170.637L52.2185 171.776C53.8821 171.386 55.316 171.207 56.4805 171.207L57.9478 171.207L71.8168 178.434L84.8823 178.612L91.0644 177.975L96.8998 176.938L98.8212 175.906C101.235 177.574 104.655 176.084 104.655 176.084C104.655 176.084 111.735 172.625 112.9 170.673C114.563 172.039 121.194 169.071 122.192 169.462L127.677 165.297L139.66 156.753L144.62 151.555L150.035 142.227C150.035 142.227 154.943 134.329 158.42 129.304C158.734 128.849 159.037 128.431 159.328 128.022C162.249 123.918 163.939 122.113 163.939 122.113C163.939 122.113 166.057 118.837 165.89 113.883C165.791 110.935 165.182 107.466 164.632 104.171C164.025 100.541 163.488 97.1225 163.779 94.8479L166.769 107.659L168.858 106.039L167.747 97.9752L164.079 78.715L169.179 94.4507C171.025 88.1677 168.012 78.9463 163.52 66.6463L159.538 60.8077L152.795 47.9201L148.289 45.8553L146.786 43.2208L144.795 36.777L128.096 28.304L120.585 28.304L118.594 25.9543C115.766 25.9543 113.941 25.077 113.109 23.3198C113.109 24.4913 112.605 25.279 111.607 25.6695L107.869 24.4947L108.358 22.7146L100.393 22.4298L98.8911 23.035L97.6335 23.035L96.8998 22.7146L95.3976 22.4298L88.6553 22.4298L83.9042 22.7146L75.9391 21.5398ZM69.0221 35.7446C69.022 35.7446 91.2121 35.7446 92.0439 35.7446C92.8757 35.7446 111.569 35.7446 112.9 35.7446C123.214 38.4779 126.157 41.1501 129.983 45.2501L130.786 50.0562L134.559 54.9336L140.813 61.6621L141.546 65.7919L143.572 66.6463C143.572 66.6463 145.187 78.9238 147.066 81.1003C149.704 69.7016 149.904 71.0591 151.083 75.3685C151.591 77.2236 150.233 84.8574 150.233 84.8574L152.166 87.6865L155.625 75.3685L155.625 92.3858L155.625 100.004L155.625 107.552C155.625 107.552 156.545 116.624 150.315 120.973C148.652 122.135 147.043 123.553 145.564 124.961L142.944 127.702L142.489 128.2C139.438 131.645 137.696 134.427 139.241 133.398C140.012 132.884 140.235 134.711 140.904 134.241C141.819 133.597 143.143 130.672 143.957 130.087C144.074 130.295 148.279 129.442 148.443 129.677C148.635 130.302 144.689 131.643 145.075 131.761C145.167 131.892 144.607 130.244 144.754 130.374C142.798 132.973 141.092 137.599 141.092 137.599L138.821 141.693L132.289 145.396L130.996 149.17C128.667 149.755 125.418 150.136 124.254 152.089L121.249 153.264C120.417 153.264 116.395 157.234 115.73 157.429C115.73 157.429 116.221 159.293 112.131 158.711C108.357 158.173 100.992 158.228 100.992 158.228L99.7645 161.808L114.647 163.695C99.7818 163.418 91.9574 165.874 88.1313 168.608C87.4516 168.608 90.8366 169.654 90.8366 169.654C90.8366 169.654 100.987 167.381 94.8038 170.708C91.1191 171.061 73.3889 168.109 73.3889 168.109C73.3889 168.109 68.9563 166.241 66.2972 165.902C63.6379 165.563 60.7775 160.063 60.7775 160.063C60.7775 160.063 64.1968 165.922 51.0657 157.643C47.5431 155.421 45.4762 150.7 45.4762 150.7C41.8162 150.505 37.6626 148.84 33.0045 145.716L30.5242 142.797L30.0001 138.988C30.0002 138.988 26.2041 138.831 26.9958 135.641L28.1137 130.906L27.7294 131.191C27.6884 126.458 24.0613 124.071 24.0613 124.071C24.0613 124.071 27.6591 127.774 25.1792 132.081L24.6202 132.793L24.071 135.066C23.4522 141.162 21.7548 132.836 21.3713 132.864C20.8908 128.485 20.7425 119.977 20.7425 119.977C20.9089 116.267 20.7042 111.8 22.0351 109.652C24.3641 105.748 23.5621 104.016 24.0613 94.0591L29.8604 84.874L33.808 78.715C33.808 78.715 38.1548 68.9536 39.153 66.6107L46.3495 61.3061L54.105 50.0562C54.105 50.0562 66.0276 38.4779 69.0221 35.7446Z" fill="#e94420" fill-rule="nonzero" opacity="1" stroke="#f8f7f7" stroke-linecap="butt" stroke-linejoin="round" stroke-width="1"/>
</g>
<g id="Слой-1" vectornator:layerName="Слой 1">
<path d="M5.98243 64.1467C11.4289 55.3437 22.4473 48.9101 25.8419 50.9835C27.3745 51.9195 29.6542 54.8099 26.1439 59.4283C23.8589 62.4346 18.281 60.9074 15.2934 65.7361C9.847 74.5391 5.87699 81.8743 2.48239 79.801C-0.912203 77.7277 0.535984 72.9497 5.98243 64.1467Z" fill="#f8f7f7" fill-rule="nonzero" filter="url(#Filter)" opacity="1" stroke="#000000" stroke-linecap="butt" stroke-linejoin="round" stroke-width="0.960792" vectornator:blur="0.000909744" vectornator:layerName="Овал 1"/>
<path d="M145.645 49.8283C110.461 25.9988 88.3576 36.3691 59.5837 39.0565C59.6621 36.2602 59.0614 22.7644 56.6934 22.2637C55.3349 22.0729 45.6604 36.6971 45.6604 36.6971C45.6604 36.6971 40.1728 34.7718 38.7481 36.1461C33.9562 20.2942 33.0001 19.5963 31.0381 18.7394C29.5747 21.7976 26.2157 34.2695 26.2157 34.2695C26.2157 34.2695 7.85231 56.5021 28.911 61.0338C36.9321 62.7599 38.3396 62.0742 40.7611 61.9389C44.3089 61.7407 28.5509 64.1784 28.5509 64.1784C28.5509 64.1784 23.3097 65.8914 18.9976 69.2069C13.4454 73.476 14.2549 72.1221 11.7648 75.2838C9.6951 77.9118 9.89621 88.6864 25.6925 76.2499C29.2269 73.4672 41.8666 72.9586 50.204 71.0451C55.6375 70.2654 107.874 57.5693 110.78 79.0409C118.091 51.9089 150.976 78.0617 155.902 106.041C136.916 53.8559 112.205 66.1791 111.763 81.0228C111.664 84.3813 112.3 95.6281 118.419 102.373C127.515 112.399 133.565 111.513 136.199 114.186C136.442 114.841 126.486 111.127 122.835 110.185C118.442 109.052 113.851 113.794 116.349 117.851C117.692 120.033 124.026 119.735 128.105 121.191C135.004 123.652 141.135 125.474 142.555 126.66C144.188 128.024 148.746 109.382 162.402 131.413C165.637 138.589 159.178 150.331 147.414 143.804C127.784 132.913 96.893 128.306 89.2024 146.238C81.3531 165.809 103.166 174.615 120.551 174.043C132.268 173.657 134.502 167.418 131.738 165.965C92.1008 168.697 90.8965 149.552 109.93 145.462C116.798 143.987 127.62 144.559 135.564 149.891C173.751 175.523 181.546 136.469 170.06 115.377C172.537 94.8392 167.741 64.7936 145.645 49.8283Z" fill="#f8f7f7" fill-rule="nonzero" filter="url(#Filter_2)" opacity="1" stroke="#000000" stroke-linecap="butt" stroke-linejoin="round" stroke-width="0.960792" vectornator:blur="0.000909744" vectornator:layerName="Кривая 1"/>
<path d="M25.1473 50.3778C19.1296 45.5202 8.75116 46.0534 8.75116 46.0534" fill="#f8f7f7" fill-rule="nonzero" filter="url(#Filter_3)" opacity="1" stroke="#000000" stroke-linecap="butt" stroke-linejoin="round" stroke-width="0.960792" vectornator:blur="0.000909744" vectornator:layerName="Линия 1"/>
<path d="M22.9669 53.0732C14.7688 50.911 1.42334 55.1119 1.42334 55.1119" fill="#f8f7f7" fill-rule="nonzero" filter="url(#Filter_4)" opacity="1" stroke="#000000" stroke-linecap="butt" stroke-linejoin="round" stroke-width="0.960792" vectornator:blur="0.000909744" vectornator:layerName="Линия 2"/>
<path d="M32.5851 51.4687L38.232 52.1406" fill="#f8f7f7" fill-rule="nonzero" filter="url(#Filter_5)" opacity="1" stroke="#000000" stroke-linecap="butt" stroke-linejoin="round" stroke-width="0.960792" vectornator:blur="0.000909744" vectornator:layerName="Линия 3"/>
<path d="M27.8112 45.6719C28.6912 44.5841 30.2709 44.4015 31.3395 45.2641C32.408 46.1267 32.5609 47.7078 31.681 48.7956C30.801 49.8835 29.2213 50.0661 28.1527 49.2035C27.0841 48.3409 26.9312 46.7597 27.8112 45.6719Z" fill="#ea7024" fill-rule="nonzero" filter="url(#Filter_6)" opacity="1" stroke="#000000" stroke-linecap="butt" stroke-linejoin="round" stroke-width="0.960792" vectornator:blur="0.000909744" vectornator:layerName="Овал 4"/>
<path d="M41.3116 46.9208C42.1916 45.833 43.7712 45.6504 44.8398 46.513C45.9084 47.3756 46.0613 48.9567 45.1813 50.0446C44.3013 51.1324 42.7217 51.315 41.6531 50.4524C40.5845 49.5898 40.4316 48.0087 41.3116 46.9208Z" fill="#ea7024" fill-rule="nonzero" filter="url(#Filter_7)" opacity="1" stroke="#000000" stroke-linecap="butt" stroke-linejoin="round" stroke-width="0.960792" vectornator:blur="0.000909744" vectornator:layerName="Овал 3"/>
</g>
<g id="Слой-2" vectornator:layerName="Слой 2">
<path d="M67.0453 38.3581C56.3789 40.3767 56.8255 53.1106 79.2844 46.1688C79.2844 46.1688 66.4548 57.1821 80.0545 58.32C88.3858 59.017 86.3823 43.9698 88.2604 47.4209C90.6936 63.6562 101.505 51.8609 98.5232 48.1161C96.451 45.5131 108.303 62.3503 114.457 45.589C114.457 45.589 120.048 54.8322 126.465 48.3351C126.465 48.3351 129.307 55.9506 137.359 51.8504C140.921 57.1955 147.866 57.9759 149.424 53.4065C149.424 53.4065 129.484 20.7652 67.0453 38.3581Z" fill="#f75a38" fill-rule="nonzero" filter="url(#Filter_8)" opacity="1" stroke="none" vectornator:blur="0.000882948" vectornator:layerName="Кривая 2"/>
<path d="M75.0648 38.1356C64.1051 36.884 68.2245 47.3853 82.5925 42.7791C82.5925 42.7791 74.6116 51.0625 83.2741 51.695C88.5807 52.0824 87.1334 41.3201 88.3063 43.5176C89.7422 53.9006 99.1997 45.9749 97.3256 43.5971C96.0229 41.9444 106.755 51.2086 114.55 41.4745C114.55 41.4745 122.708 48.0704 126.845 43.8628C126.845 43.8628 129.228 49.6823 134.391 46.9986C136.623 50.3974 138.797 48.5945 139.823 45.6563C139.823 45.6563 114.997 26.423 75.0648 38.1356Z" fill="#b23e25" fill-rule="nonzero" filter="url(#Filter_9)" opacity="1" stroke="none" vectornator:blur="0.000691616" vectornator:layerName="Кривая 1"/>
</g>
<g id="Слой-3" vectornator:layerName="Слой 3">
<path d="M113.428 79.1404C113.539 74.7013 120.278 68.3712 124.441 71.9587C126.441 73.6824 127.087 81.5634 125.582 86.1848C127.918 82.4221 132.541 76.4547 137.616 77.9168C142.889 79.4362 148.341 88.6207 135.534 97.2708C137.315 96.0993 144.268 94.7285 146.973 97.2224C149.183 99.2609 152.044 103.959 147.726 107.113C145.859 108.477 140.11 109.058 136.599 109.83C109.04 104.848 113.261 85.7788 113.428 79.1404Z" fill="#b23e25" fill-rule="nonzero" filter="url(#Filter_10)" opacity="0.99168" stroke="none" vectornator:blur="0.000691616" vectornator:layerName="Кривая 2"/>
<path d="M114.348 84.4353C114.348 84.4353 117.574 76.9812 120.33 77.0408C125.997 77.1635 124.247 82.2989 123.945 89.9972C123.945 89.9972 129.985 79.2512 135.48 86.154C140.472 92.4266 134.396 93.3535 131.802 98.7502C131.802 98.7502 137.824 97.5411 140.258 99.2535C143.6 101.605 142.655 107.227 132.644 108.667C110.884 104.733 114.637 89.1572 114.348 84.4353Z" fill="#f65836" fill-rule="nonzero" filter="url(#Filter_11)" opacity="1" stroke="none" vectornator:blur="0.00054607" vectornator:layerName="Кривая 3"/>
<path d="M115.056 90.6878C115.056 90.6878 120.922 83.5791 120.518 93.8536C120.518 93.8536 129.137 90.2103 124.991 98.8357C124.991 98.8357 135.317 103.063 125.47 104.48C113.084 102.241 115.22 93.3755 115.056 90.6878Z" fill="#b23e25" fill-rule="nonzero" filter="url(#Filter_12)" opacity="1" stroke="none" vectornator:blur="0.000310817" vectornator:layerName="Кривая 1"/>
</g>
<g id="Слой-4" vectornator:layerName="Слой 4">
<g opacity="1" vectornator:layerName="Группа 1">
<path d="M38.232 139.778C38.232 140.952 38.0182 142.372 37.5906 144.036C37.0644 146.092 36.4231 147.708 35.6666 148.883C35.4035 149.568 35.1239 149.959 34.8279 150.057C34.2359 151.232 33.6603 151.869 33.1012 151.966C32.8709 152.652 32.4763 153.288 31.9171 153.876L31.0291 153.729L30.1411 155.932L29.2037 155.344L28.9077 155.491L28.1677 155.785C27.6743 155.98 27.2632 156.078 26.9343 156.078C26.8685 156.078 26.7534 156.029 26.589 155.932C26.4245 155.932 26.293 155.932 26.1943 155.932L25.5036 156.666L24.5169 156.959L23.3822 156.813L22.8395 157.547L22.9875 157.987C22.2311 157.987 21.639 158.183 21.2115 158.575L20.9648 158.428L18.9421 157.987L16.0807 157.694L15.1433 157.253C14.8473 157.645 14.5019 157.841 14.1073 157.841C13.6468 157.841 13.1699 157.4 12.6765 156.519L11.7392 157.547L11.2458 156.225C9.86446 156.127 9.05866 155.736 8.82843 155.05L8.63109 154.757C8.72976 154.757 8.4502 154.855 7.7924 155.05L5.86834 151.232L4.98031 150.645C4.42119 149.862 3.94428 148.491 3.5496 146.533C3.2207 144.869 3.05626 143.253 3.05626 141.687C3.05626 140.61 3.2207 138.701 3.5496 135.959L4.5363 132.729L5.72034 132.876C5.98346 131.799 6.36169 131.26 6.85504 131.26C7.90751 131.26 8.43375 133.757 8.43375 138.75C7.74306 139.239 7.33194 139.631 7.20038 139.924C7.03593 140.512 6.78926 141.148 6.46036 141.834L6.46036 142.274L6.90437 143.008L7.49639 144.918L9.42045 144.624L11.0485 146.092L13.6139 145.945L14.5513 147.708L14.9953 146.973C15.1926 146.973 15.4393 147.12 15.7353 147.414L17.018 147.855L17.1167 148.589L17.906 148.589C18.6625 147.904 19.0901 147.561 19.1887 147.561C19.3532 147.561 19.5505 147.708 19.7808 148.001C20.0768 147.806 20.455 147.708 20.9155 147.708C21.2444 147.708 21.5404 147.806 21.8035 148.001C22.0337 147.61 22.2968 147.414 22.5929 147.414C22.9546 147.414 23.2671 147.61 23.5302 148.001L24.6156 147.12L25.1583 145.358L27.033 145.945C27.9868 145.064 28.7433 144.624 29.3024 144.624L29.5491 144.624C29.7793 144.134 29.9766 143.89 30.1411 143.89C30.2398 143.89 30.3549 143.987 30.4864 144.183C30.4864 144.183 30.6509 143.987 30.9798 143.596L30.9798 142.421L32.0158 142.421C32.246 141.54 32.6572 141.05 33.2492 140.952C33.7096 139.68 34.0879 138.994 34.3839 138.897C34.3839 138.897 34.5154 138.309 34.7786 137.134C34.7786 136.253 33.7261 134.344 31.6211 131.407L31.2264 130.526C30.5358 130.33 29.9931 129.987 29.5984 129.498C29.3682 129.498 29.1544 129.449 28.957 129.351L28.8584 129.351C28.6939 129.351 28.0526 128.764 26.9343 127.589C26.5725 126.806 26.1943 126.414 25.7996 126.414C25.6681 126.414 25.4707 126.512 25.2076 126.708L24.2209 126.708L24.0729 126.267C23.5467 125.973 23.1355 125.533 22.8395 124.945L22.2475 125.533L20.7181 123.33L19.7314 123.33L19.0901 122.155L18.1034 122.155L17.9554 121.421L17.166 121.421L16.4753 119.071L16.13 119.071C15.1104 119.071 14.321 118.484 13.7619 117.309L13.6632 117.015C12.9397 116.33 12.4134 115.253 12.0845 113.785L11.2458 111.435L10.7032 107.617L10.1111 105.267L10.3578 99.2461L11.5418 95.1342C11.7392 95.0363 11.8872 94.3999 11.9859 93.2251C12.0845 93.1272 12.249 92.8824 12.4792 92.4908L14.9953 88.3789C15.3242 88.5747 15.5544 88.6726 15.686 88.6726C16.1464 88.6726 16.6233 88.1831 17.1167 87.2041L17.4127 87.2041L17.4127 87.4978L17.906 86.1761L18.1527 86.1761C19.2052 85.0013 20.0768 84.4139 20.7675 84.4139L21.0141 84.4139L21.4582 84.5607L22.1982 83.239C22.3955 83.1411 22.6586 83.0922 22.9875 83.0922L23.2835 83.0922C23.5138 83.0922 23.9167 82.9943 24.4922 82.7985C25.0678 82.6027 25.5201 82.4558 25.849 82.3579L26.737 82.2111L28.069 80.1551C28.1677 80.3509 28.3815 81.0852 28.7104 82.3579L29.7957 82.3579C29.9931 82.3579 30.3549 82.6516 30.8811 83.239L31.2264 83.239C32.0158 83.239 32.6736 83.7285 33.1998 84.7076C34.943 85.9803 35.8146 88.5747 35.8146 92.4908C35.8146 95.8195 34.9101 97.8265 33.1012 98.5118L32.7065 96.7496C32.6078 96.6517 32.4352 96.4559 32.1885 96.1621C31.9418 95.8684 31.7527 95.6726 31.6211 95.5747L30.5358 95.5747L30.0424 93.9593L29.2531 94.2531L28.809 95.7216L27.625 93.2251L26.3423 93.8125L24.8129 92.7845C23.8591 92.9803 23.0533 93.5677 22.3955 94.5468L22.2968 94.6936C22.1982 94.8894 22.0913 95.0607 21.9762 95.2076C21.8611 95.3545 21.787 95.4279 21.7542 95.4279L21.0635 94.5468L19.6821 96.4559L17.1167 98.5118L16.5247 98.0712L15.4393 100.127L14.946 100.127L14.6499 101.449L13.6139 103.505L13.7126 104.386C13.7126 104.386 13.8935 104.924 14.2553 106.001L14.7486 106.442L15.538 107.91L17.0673 109.526L17.8074 109.673L19.1394 112.022L19.5341 111.582C20.4879 112.169 21.1293 112.952 21.4582 113.931L21.6062 114.372L21.7048 114.372C21.7048 114.372 22.0337 114.959 22.6915 116.134L23.0369 115.106L24.2209 115.253L24.4182 115.547L25.1089 115.547L25.7996 117.162L26.145 117.162C26.7041 117.162 27.1974 117.407 27.625 117.896C27.6579 117.896 27.8223 117.848 28.1184 117.75C28.7104 117.75 29.3682 118.533 30.0917 120.099L30.6838 119.659L31.1278 120.246L31.9665 120.246L33.3972 123.183L34.8772 123.624L35.4692 125.973C36.5875 128.029 37.3193 129.816 37.6646 131.334C38.01 132.851 38.1827 135.029 38.1827 137.869C38.1827 138.064 38.1991 138.358 38.232 138.75C38.232 139.141 38.232 139.484 38.232 139.778Z" fill="#303030" fill-rule="nonzero" opacity="1" stroke="#f8f7f7" stroke-linecap="butt" stroke-linejoin="round" stroke-width="1"/>
<path d="M67.1162 148.395C67.1162 149.261 66.8259 150.306 66.2453 151.532L65.8583 151.856L65.5197 152.83L64.6488 153.371C64.4876 153.875 64.3263 154.128 64.165 154.128C64.1328 154.128 64.1005 154.092 64.0683 154.02C64.0038 154.02 63.9554 154.02 63.9232 154.02C63.2136 154.813 62.3589 155.209 61.3591 155.209L60.972 155.209L59.7626 154.669L58.9401 153.803L57.1017 150.342L56.7147 147.422L55.9406 146.016C56.0374 145.727 56.0858 145.259 56.0858 144.61C56.0858 144.177 55.9567 143.456 55.6987 142.447L55.8439 139.851L55.8439 139.418C55.8439 138.553 55.731 137.435 55.5052 136.065L55.7955 132.821L55.1666 135.633L54.4409 135.849L54.3441 138.12C54.0861 138.409 53.7797 138.553 53.4249 138.553L52.8927 141.149L52.2638 142.771C52.0058 143.42 51.78 143.781 51.5865 143.853L51.4414 144.069L49.6997 148.071L49.5062 148.071L48.587 150.45L47.7162 151.424L47.2324 152.83L46.1197 153.587L44.5232 154.993L43.5556 153.911C42.9105 153.911 42.459 153.263 42.201 151.965L41.7656 151.424C41.7656 151.208 41.7817 150.919 41.8139 150.559C41.8139 150.198 41.8139 149.946 41.8139 149.801L41.0399 148.287L41.2334 147.638L40.6529 144.61L40.8464 144.177L40.7496 143.961C40.7496 143.817 40.7496 143.6 40.7496 143.312C40.7174 143.096 40.7012 142.915 40.7012 142.771C40.7012 141.978 40.7496 141.221 40.8464 140.5L40.8947 137.688L40.7012 135.416C40.8625 134.839 40.9431 134.335 40.9431 133.902C40.9431 133.397 40.8464 132.929 40.6529 132.496L41.185 131.631L41.185 130.333L40.9915 126.764L41.5237 119.841C41.5237 118.688 41.3785 116.993 41.0883 114.758C41.185 112.451 41.8623 111.189 43.1202 110.972L43.5072 111.297L44.1845 111.513L45.0553 113.676L44.7651 116.489L44.6683 121.139L44.8134 124.709L44.5232 126.007L44.6683 126.872L44.4264 128.602L44.4264 129.684L44.3297 130.008C44.3619 130.225 44.378 130.549 44.378 130.982C44.378 131.919 44.3135 132.893 44.1845 133.902L44.4264 134.659L44.2329 136.282L44.3297 137.579L44.3297 139.094C44.4909 139.526 44.5716 140.067 44.5716 140.716C44.5716 141.293 44.507 141.87 44.378 142.447L44.378 142.879C44.5393 144.105 44.6199 144.898 44.6199 145.259L45.0553 146.232C45.2489 145.944 45.4746 145.583 45.7326 145.151C45.8294 144.43 46.0552 143.961 46.41 143.745L46.41 142.663C46.6035 142.663 46.9099 142.555 47.3292 142.338L47.4259 141.365L48.2484 140.608L48.3935 140.283C48.6193 139.779 48.9902 139.31 49.5062 138.877L49.5062 138.445L50.4254 136.931C50.6512 135.561 51.0543 134.659 51.6349 134.227C51.9897 133.433 52.2316 132.965 52.3606 132.821L52.9895 130.982L52.9895 130.657L53.183 130.441L53.6184 130.008L53.8603 128.494L54.8763 127.521L55.0698 127.413C55.0698 127.413 55.1827 127.16 55.4084 126.655L55.4084 125.682L55.6987 125.466C55.7955 124.312 56.0535 123.447 56.4728 122.87L57.1985 119.192L57.4404 117.246L57.5371 116.813L57.7306 116.813L58.0693 116.272L57.779 116.056C58.1338 114.758 58.4079 113.388 58.6015 111.946L60.0045 111.838L61.1172 113.893L61.601 115.623L61.0688 120.274L60.3431 122.437L59.7626 126.655L59.2788 127.304L59.2788 128.927L58.9885 130.117L59.1336 132.063L58.7466 132.821L58.9401 136.282L59.0369 141.149L59.2788 141.149L59.2788 143.961L59.9561 145.8L60.585 146.557L60.6334 147.097C60.8591 147.17 61.1333 147.35 61.4558 147.638L62.6653 147.855L63.391 147.422L64.6972 146.016C64.9552 145.727 65.2778 145.583 65.6648 145.583C66.6324 145.583 67.1162 146.521 67.1162 148.395Z" fill="#303030" fill-rule="nonzero" opacity="1" stroke="#f8f7f7" stroke-linecap="butt" stroke-linejoin="round" stroke-width="1"/>
<path d="M100.198 137.147C100.198 137.724 99.9879 138.481 99.5686 139.418L99.0365 141.257L98.8429 143.42L98.4075 143.745L98.3108 144.394C97.7947 144.754 97.4238 145.655 97.1981 147.097C96.8433 148.107 96.4562 148.828 96.037 149.261C95.8757 149.621 95.7306 149.874 95.6016 150.018L95.3597 150.991L94.9242 151.208L93.6664 152.722L92.0215 153.154L91.5861 152.938L90.8604 153.263L90.5701 152.505C90.1186 152.001 89.7961 151.496 89.6026 150.991C89.2155 150.775 88.9253 150.09 88.7317 148.936C88.1834 147.494 87.9093 146.34 87.9093 145.475L87.9093 145.151L87.5706 143.853L87.4739 143.636L87.1836 141.69L86.7482 139.635L86.845 137.147L86.3612 135.741L85.6355 126.439C85.5387 125.213 85.4903 124.168 85.4903 123.303L85.3936 122.762L85.1517 122.005L84.7163 123.303L82.9746 127.413L82.3457 129.684L82.0071 131.198L81.4749 132.929L81.0879 133.794L81.1362 134.335L80.4589 137.688L80.0719 138.769L79.5881 138.986L79.1527 139.959C79.1527 141.401 78.8463 142.338 78.2335 142.771L78.1367 142.987C77.8465 144.574 77.5239 145.547 77.1692 145.908L76.7337 147.422C76.0242 148.864 75.5565 149.765 75.3308 150.126C75.234 150.847 75.0566 151.46 74.7986 151.965C74.7341 152.181 74.6212 152.469 74.4599 152.83C74.3632 154.056 73.9116 154.921 73.1053 155.426L72.5731 155.75C71.9281 155.678 71.3959 154.849 70.9766 153.263L70.251 150.559L70.4929 147.963L70.3961 146.557L70.4929 146.34L70.5412 144.934L70.0091 142.338L70.3961 141.041L70.2026 139.635L70.5412 138.12L70.638 135.633L70.4445 135.2L70.8315 133.686L70.6864 132.929L70.638 131.198L70.8315 127.953C70.767 127.232 70.7347 126.764 70.7347 126.547C70.7347 126.403 70.7509 126.259 70.7831 126.115C70.7831 125.898 70.7831 125.754 70.7831 125.682L70.5412 124.817L70.6864 121.356L70.638 120.166L70.7831 118.435L70.5896 115.515L71.4604 112.27C72.4603 112.631 73.1537 113.118 73.5407 113.73C73.9278 114.343 74.1213 115.443 74.1213 117.029L74.1213 118.003L74.4599 119.301L74.3148 121.572L74.5083 125.898L74.1697 127.953L74.3148 130.225L74.3148 132.063L73.9278 133.253L74.218 135.2L73.9278 136.39L73.8794 137.579L74.1697 138.769L73.7826 141.041L73.6375 142.014L73.6375 142.987L73.8794 144.069L74.7018 142.23C74.7018 141.149 74.8631 140.428 75.1856 140.067C75.2179 139.346 75.3469 138.805 75.5726 138.445L75.4275 138.12L76.0564 136.822L76.2016 136.39L76.2016 135.416L76.9756 134.118L77.1692 133.037L77.6046 132.388L79.4913 127.629C79.3301 128.062 78.7979 129.395 77.8948 131.631L77.8948 131.847L77.9916 131.09L78.6205 129.468L79.0559 127.629L79.0559 126.547L79.7816 126.007L79.8784 124.6L80.0719 124.168L80.1203 123.627L80.1203 122.87L80.7976 121.356C80.7976 121.211 80.7976 121.031 80.7976 120.815C80.7653 120.599 80.7492 120.454 80.7492 120.382C80.7492 119.084 81.0717 118.363 81.7168 118.219C82.0071 116.921 82.4425 116.164 83.023 115.948L83.3133 114.974L83.41 114.758C83.7003 113.821 84.1357 113.172 84.7163 112.811L85.1517 111.621L86.3128 111.621L86.8933 113.136L87.4255 113.785L87.4739 114.109L87.8125 114.325L87.9093 116.597L88.7317 117.678L88.3931 120.058L88.9253 122.654L88.9253 125.682L89.3123 129.792L89.409 133.686L89.8445 135.957L90.1347 138.769C90.3282 139.202 90.4734 139.815 90.5701 140.608L91.441 141.149L91.441 143.312L91.9247 144.502L91.9247 144.826L92.1183 144.934L92.3118 145.583L92.5053 145.042C92.4408 145.042 92.5214 145.079 92.7472 145.151C93.102 145.151 93.4729 144.43 93.8599 142.987L94.4405 142.663L94.5856 142.122C94.6824 141.545 94.8759 141.113 95.1661 140.824L95.5048 140.932L95.6983 140.5L95.7467 139.959L95.8918 139.526C96.2144 139.022 96.424 138.265 96.5208 137.255L97.0529 135.957L97.1497 134.984L97.4883 133.253L98.4075 132.496L99.7138 133.469L100.149 136.606C100.149 136.678 100.165 136.75 100.198 136.822C100.198 136.967 100.198 137.075 100.198 137.147Z" fill="#303030" fill-rule="nonzero" opacity="1" stroke="#f8f7f7" stroke-linecap="butt" stroke-linejoin="round" stroke-width="1"/>
<path d="M121.443 114.434L121.056 118.003L119.266 118.544L118.298 119.95L117.669 119.301L116.992 120.166L116.266 120.815L115.782 121.572L115.782 122.005L114.766 123.086L114.089 125.033L113.75 125.033C113.234 126.259 112.863 127.016 112.638 127.304L111.96 129.792L111.718 130.008C111.622 130.585 111.509 131.45 111.38 132.604L110.702 133.145L110.412 134.443L110.025 135.524L109.928 137.147L109.541 137.471L109.541 139.094L109.396 139.418C109.493 139.779 109.606 140.175 109.735 140.608L109.009 141.257L108.912 142.663L108.429 144.502L108.719 145.908L108.09 147.855C108.154 148.576 108.187 149.08 108.187 149.369C108.187 149.441 108.187 149.585 108.187 149.801C108.154 150.018 108.138 150.198 108.138 150.342L108.235 151.316L109.058 153.263L108.429 155.75L107.848 156.724L106.493 158.238L104.703 156.615L104.703 154.128L104.51 153.154L104.655 151.532C104.591 150.378 104.558 149.513 104.558 148.936C104.558 148.72 104.574 148.431 104.607 148.071C104.607 147.71 104.607 147.458 104.607 147.314L104.558 146.232C104.333 145.727 104.22 145.151 104.22 144.502C104.22 143.925 104.333 143.276 104.558 142.555C104.558 142.194 104.526 141.113 104.462 139.31L104.607 138.986L104.462 137.579L104.558 136.282L104.462 135.524L104.607 133.037L104.316 131.955L104.51 130.765L104.316 129.359C104.349 128.927 104.365 128.35 104.365 127.629C104.365 126.547 104.3 125.826 104.171 125.466L104.365 124.817L104.171 122.87L103.736 121.464L103.978 119.733L103.784 119.084L103.591 116.489L103.591 115.623C103.429 115.191 103.349 114.65 103.349 114.001C103.349 112.559 104.058 111.333 105.477 110.323L106.687 110.864L106.929 112.919L107.413 114.325L107.268 117.246C107.364 118.688 107.477 120.274 107.606 122.005L107.751 123.735C107.784 123.879 107.816 124.276 107.848 124.925C107.848 125.358 107.767 125.826 107.606 126.331L107.751 128.494L107.655 130.874L107.461 131.955L107.606 132.388L107.703 133.469C107.896 132.965 108.009 132.424 108.042 131.847L108.235 130.225C108.332 129.792 108.477 129.468 108.67 129.251L108.864 127.629L109.541 126.764L109.638 125.466L110.17 124.168L110.557 122.545C110.977 121.536 111.38 120.887 111.767 120.599L111.864 120.274L112.299 118.76L112.783 118.544L112.928 118.219L113.121 117.57L113.654 116.921L113.944 116.164L114.234 116.272L114.621 115.84L114.815 115.191L115.395 114.542L116.218 113.352L117.379 112.487C117.83 112.342 118.072 112.27 118.104 112.27C118.104 112.342 118.104 112.378 118.104 112.378C118.072 112.378 118.056 112.415 118.056 112.487L118.104 112.487C118.233 112.487 118.427 112.342 118.685 112.054C118.846 111.766 119.072 111.621 119.362 111.621C119.491 111.621 119.717 111.693 120.04 111.838C120.878 111.91 121.346 112.775 121.443 114.434Z" fill="#303030" fill-rule="nonzero" opacity="1" stroke="#f8f7f7" stroke-linecap="butt" stroke-linejoin="round" stroke-width="1"/>
<path d="M131.56 89.4349C131.56 90.2342 131.302 90.9669 130.786 91.633L130.786 91.8329C130.174 93.3649 129.641 94.2308 129.19 94.4306L128.464 96.229L127.98 97.5279L126.868 98.1274L126.384 99.5262L125.61 100.325L124.352 102.623L123.578 101.125L123.723 98.627L124.255 96.8285C124.287 95.896 124.545 95.0967 125.029 94.4306L125.029 94.0309L125.319 93.6313L125.368 92.1326L126.142 91.7329L126.142 90.8337L126.722 90.6339C126.851 89.3017 127.126 88.3359 127.545 87.7364L127.69 87.5366L127.98 86.9371L128.367 84.5392C130.496 85.6049 131.56 87.2369 131.56 89.4349ZM136.495 142.389C136.495 143.921 136.366 144.887 136.108 145.286L135.866 145.686L135.624 147.085L134.85 147.584C134.624 148.65 134.286 149.483 133.834 150.082L133.399 150.382L132.77 151.781L132.189 152.081C131.964 153.279 131.496 153.912 130.786 153.979C130.722 154.179 130.577 154.578 130.351 155.178C129.867 155.844 129.367 156.244 128.851 156.377L128.609 156.477L128.271 157.376L127.303 157.376L126.529 158.575L124.545 155.577L123.626 151.681L123.578 146.785L123.384 145.586L123.965 136.794L124.158 136.394C124.062 135.395 124.013 134.429 124.013 133.497C124.013 132.897 124.11 131.665 124.304 129.8L124.545 127.502C124.481 127.102 124.352 126.669 124.158 126.203L124.449 124.305L124.545 122.007L124.642 121.707C124.513 121.107 124.433 120.441 124.4 119.709C124.433 119.575 124.465 119.392 124.497 119.159C124.529 118.926 124.545 118.743 124.545 118.61C124.449 118.01 124.867 114.72 124.867 114.187C124.867 112.588 124.846 110.298 125.717 110.431L125.907 109.036C126.294 108.636 127.174 109.734 127.271 109.734C127.916 109.734 127.747 112.765 127.973 114.23L128.319 116.811C128.448 117.61 128.513 118.376 128.513 119.109C128.513 119.709 128.48 120.142 128.416 120.408L128.077 125.404L128.416 126.802C128.416 128.001 128.222 129.067 127.835 130L128.029 131.199L127.4 134.995C127.335 136.661 127.255 137.926 127.158 138.792L127.158 141.29L126.868 142.689L126.916 143.688L126.819 145.986L126.916 147.784L127.642 148.983L128.222 148.783L128.319 148.484L128.706 148.584L129.335 148.184L129.867 147.085L130.061 146.485L130.399 146.385L130.496 145.886L130.641 145.486L130.931 145.886L131.415 144.887L131.706 144.987L131.802 144.287L131.899 144.287L132.044 143.488L132.48 143.088L133.399 142.189C134.141 141.123 134.866 140.591 135.576 140.591L135.769 140.591C136.124 141.057 136.366 141.656 136.495 142.389Z" fill="#303030" fill-rule="nonzero" opacity="1" stroke="#f8f7f7" stroke-linecap="butt" stroke-linejoin="round" stroke-width="1"/>
<path d="M158.562 145.8L157.982 147.314L157.45 150.126L157.063 150.775L156.724 152.289L155.757 152.505L155.128 153.911L154.16 153.911L153.579 154.993L153.047 154.669L152.418 154.993L152.418 155.858L150.628 155.534L149.854 155.642L149.274 156.291L148.79 155.642C149.112 155.57 149.37 155.534 149.564 155.534C149.306 155.606 148.532 155.75 147.242 155.966L147.097 155.858L146.71 155.75L146.081 156.507C145.887 156.219 145.532 155.894 145.016 155.534C144.307 155.39 143.839 155.318 143.613 155.318L143.226 155.318C143.001 155.245 142.759 155.209 142.501 155.209C142.243 155.209 141.985 155.354 141.727 155.642L141.049 154.669L140.662 154.452C140.565 154.452 140.388 154.344 140.13 154.128C138.937 153.839 138.34 151.604 138.34 147.422L138.34 146.449L139.259 144.934L140.42 143.961L141.291 144.934L141.968 144.934L141.968 145.259C142.291 145.547 142.549 146.124 142.743 146.989L143.13 147.097L143.13 148.504L143.759 148.828L143.904 149.044L150.096 148.179L151.596 147.638L151.741 147.638L151.838 147.097L152.515 146.881L152.612 146.557C153.289 146.34 153.918 145.908 154.499 145.259L154.547 144.718C154.515 144.646 154.45 144.394 154.354 143.961L154.112 144.069L153.483 142.987L153.047 142.987L152.805 142.23L152.951 141.798L152.418 142.014L152.031 141.041C151.935 141.113 151.773 141.149 151.548 141.149C151.128 141.149 150.709 140.968 150.29 140.608L149.854 140.608L149.516 140.283L148.838 140.824L148.451 139.851L148.306 139.851L147.629 138.661L146.129 137.363L145.645 136.498L143.807 135.741L143.613 134.984L142.259 133.037L141.533 129.468L140.953 127.629L140.759 122.005L140.953 121.356C141.017 119.697 141.275 118.255 141.727 117.029C142.21 116.452 142.452 115.623 142.452 114.542L143.178 114.217C143.307 113.64 143.565 113.1 143.952 112.595L144.678 111.297L147.726 108.701L148.258 108.377L149.225 108.16L150.822 107.187L153.87 107.62L153.966 108.16C154.257 108.377 154.579 108.953 154.934 109.891L154.934 110.432L155.708 111.513L155.369 114.109L155.273 115.082C155.079 116.885 154.628 117.786 153.918 117.786C153.338 117.786 152.902 117.174 152.612 115.948L152.612 115.623L152.031 115.515L151.354 115.948L150.725 114.974L150.386 115.515C149.967 115.515 149.58 115.804 149.225 116.38C148.742 116.38 148.274 116.813 147.822 117.678L147.193 117.678L146.758 118.435L146.081 118.76L145.984 118.976L145.694 119.301L145.258 120.274L145.113 120.382L144.678 121.896L144.146 122.545C144.017 123.483 143.936 124.276 143.904 124.925C143.936 125.934 143.992 126.601 144.073 126.926C144.154 127.25 144.371 127.593 144.726 127.953L144.726 128.494L145.355 129.251C145.871 129.684 146.258 130.153 146.516 130.657L147.484 130.657L148.113 131.847L149.225 132.172L149.661 132.821L151.548 134.01L151.789 135.2L151.983 134.443C152.402 134.443 152.967 134.876 153.676 135.741L154.547 136.065L154.644 136.822L155.418 136.822L156.772 138.553C156.934 139.49 157.289 140.356 157.837 141.149L158.369 141.906L158.224 143.204C158.45 143.925 158.562 144.682 158.562 145.475L158.562 145.8Z" fill="#303030" fill-rule="nonzero" opacity="1" stroke="#f8f7f7" stroke-linecap="butt" stroke-linejoin="round" stroke-width="1"/>
<path d="M177.985 142.797C177.985 143.598 177.695 144.601 177.114 145.804C176.953 146.873 176.711 147.741 176.389 148.41L176.098 148.51L175.566 150.414L174.695 150.715L173.776 151.918L173.292 153.722L172.76 153.522C172.405 153.856 172.115 154.056 171.889 154.123L171.599 155.025C171.502 154.958 171.357 154.925 171.164 154.925C170.744 154.925 170.341 155.526 169.954 156.729L169.277 155.526C169.148 155.593 168.954 155.627 168.696 155.627C168.277 155.627 167.922 155.493 167.632 155.226L166.809 155.226L166.422 154.725C165.197 154.324 164.423 153.355 164.1 151.818L164.1 151.517L163.52 150.916L163.229 149.212L162.649 148.41L162.649 146.906L162.068 142.496L162.165 138.887L162.359 137.284L162.359 135.179L162.601 133.575L162.552 132.873L162.891 131.67L162.794 131.871C162.794 131.269 162.875 130.635 163.036 129.966L163.036 129.465L162.891 127.06C162.891 125.924 163.133 124.921 163.616 124.053C163.649 123.919 163.665 123.718 163.665 123.451C163.665 123.184 163.608 122.633 163.496 121.797C163.383 120.962 163.326 120.377 163.326 120.043C163.326 119.241 163.423 118.406 163.616 117.537C163.874 118.339 164.245 118.74 164.729 118.74L164.874 118.74C164.939 118.473 165.084 118.172 165.31 117.838C165.568 116.167 165.923 114.764 166.374 113.628L166.568 113.227C166.568 112.96 166.664 112.191 166.858 110.922L167.245 110.922L167.342 110.421L167.729 110.22C167.89 109.685 167.995 109.368 168.043 109.268C168.092 109.168 168.438 108.75 169.083 108.015C169.212 107.547 169.406 107.113 169.664 106.712C169.793 106.578 169.954 106.445 170.148 106.311L170.341 105.709C171.212 105.108 171.76 104.807 171.986 104.807C172.244 104.807 172.486 104.941 172.712 105.208L172.954 105.108L173.292 105.509C173.679 106.11 174.066 106.612 174.453 107.013L175.276 108.316L175.276 108.717C176.018 109.919 176.389 111.623 176.389 113.829L176.243 114.831L176.389 118.139L175.953 118.74L175.469 121.346L174.55 123.451L174.502 125.055C173.47 126.592 172.518 127.828 171.647 128.764C171.357 129.699 170.906 130.167 170.293 130.167L170.148 130.167L169.228 131.37L168.454 131.37L167.293 132.372L166.422 131.47L166.326 131.47C166.261 132.005 166.197 132.806 166.132 133.876L165.745 134.477L165.697 135.68L165.406 137.384C165.503 138.988 165.552 140.023 165.552 140.491L165.358 140.792C165.358 141.661 165.342 142.295 165.31 142.696C165.31 142.763 165.294 142.863 165.261 142.997C165.261 143.131 165.261 143.231 165.261 143.298C165.261 143.832 165.39 144.267 165.648 144.601C165.745 145.403 165.906 145.904 166.132 146.104L166.471 146.706L167.535 147.307L167.535 147.608L167.922 147.808L169.567 148.009L170.535 147.708L171.018 147.006L171.309 146.806L171.793 145.302L172.034 145.202L173.244 144.4C173.373 143.933 173.583 143.532 173.873 143.197L174.018 142.696C174.663 142.429 175.034 141.727 175.131 140.591C175.582 139.656 176.163 139.188 176.872 139.188L177.066 139.188C177.679 140.658 177.985 141.861 177.985 142.797ZM173.196 113.929C173.196 113.728 173.147 113.327 173.05 112.726L172.808 112.626L172.712 112.726C172.679 112.726 172.615 112.726 172.518 112.726C172.454 112.793 172.389 112.826 172.325 112.826C172.292 112.826 172.244 112.793 172.18 112.726C172.115 112.726 172.067 112.726 172.034 112.726L171.551 113.428L171.115 113.528L170.873 113.728L170.051 115.933L169.519 116.735L168.745 119.542L168.309 120.143C168.212 121.279 167.987 122.248 167.632 123.05L167.438 123.752C167.793 123.284 168.196 123.05 168.648 123.05L168.987 122.749L169.132 121.847L169.809 121.948L170.196 120.745L170.486 120.745L171.018 121.146L171.26 119.642L171.599 119.642L171.599 118.54L172.228 118.239L172.373 117.938L172.47 117.036L173.099 115.132C173.163 114.797 173.196 114.397 173.196 113.929Z" fill="#303030" fill-rule="nonzero" opacity="1" stroke="#f8f7f7" stroke-linecap="butt" stroke-linejoin="round" stroke-width="1"/>
</g>
</g>
</svg>
